<?xml version="1.0" standalone="no"?>
<!DOCTYPE svg PUBLIC "-//W3C//DTD SVG 20010904//EN"
 "http://www.w3.org/TR/2001/REC-SVG-20010904/DTD/svg10.dtd">
<svg version="1.0" xmlns="http://www.w3.org/2000/svg"
 width="100.000000pt" height="100.000000pt" viewBox="0 0 100.000000 100.000000"
 preserveAspectRatio="xMidYMid meet">
<metadata>
Created by potrace 1.16, written by Peter Selinger 2001-2019
</metadata>
<g transform="translate(0.000000,100.000000) scale(0.021786,-0.021739)"
fill="#000000" stroke="none">
<path d="M2121 4489 c-492 -41 -980 -208 -1379 -473 -249 -165 -510 -414 -577
-549 -66 -134 -66 -136 -63 -935 l3 -717 28 -56 c31 -64 109 -143 165 -166 79
-33 1219 -353 1259 -353 33 0 46 -5 62 -25 39 -51 120 -222 155 -332 34 -107
36 -119 36 -251 0 -76 -5 -221 -11 -322 -10 -172 -9 -185 7 -197 24 -18 28
-17 64 13 17 15 32 25 34 23 2 -2 9 -14 15 -26 20 -38 47 -47 72 -22 19 19 22
20 39 4 14 -12 28 -15 47 -11 37 9 42 9 83 1 28 -5 32 -4 17 5 -21 13 -72 16
-104 5 -17 -5 -28 -1 -47 20 l-26 27 -10 -26 c-5 -14 -16 -26 -23 -26 -18 0
-43 28 -52 59 l-7 23 -33 -32 c-19 -19 -40 -30 -51 -28 -17 3 -19 12 -14 98 3
52 5 205 5 340 l0 245 -33 100 c-53 158 -194 408 -337 595 -53 70 -59 81 -43
75 7 -3 49 -57 93 -120 44 -62 84 -114 88 -114 10 -1 -29 68 -85 152 -21 31
-34 57 -29 57 5 0 36 -41 67 -91 32 -50 60 -87 61 -82 4 12 -34 112 -49 131
-6 7 -8 15 -4 19 8 8 3 14 72 -102 33 -55 60 -92 62 -83 2 9 -6 50 -16 92 -11
42 -16 76 -11 76 9 0 16 -24 50 -169 17 -77 63 -182 95 -220 13 -15 14 24 4
141 -9 105 -17 143 -36 180 -13 26 -24 49 -24 50 0 2 11 4 24 4 20 2 24 -4 29
-37 5 -41 72 -169 87 -169 6 0 10 28 11 63 0 34 4 80 9 102 6 27 8 0 4 -87 -5
-126 -5 -128 23 -178 15 -27 32 -49 38 -47 5 2 18 54 28 115 l19 112 -26 55
c-14 30 -21 55 -17 55 5 0 14 -13 21 -30 16 -38 24 -38 38 3 10 29 11 26 6
-25 -4 -47 -1 -64 21 -107 28 -56 45 -59 46 -8 1 51 24 173 31 162 3 -5 -2
-63 -12 -128 l-18 -119 30 -64 c16 -35 33 -66 38 -69 9 -5 22 63 41 212 9 68
10 102 2 128 -11 33 -10 35 13 35 21 0 23 -3 18 -29 -4 -20 3 -54 21 -102 32
-83 38 -79 50 37 7 66 24 123 25 82 0 -10 -7 -67 -16 -129 l-15 -111 25 -66
c14 -37 30 -80 36 -97 16 -43 24 -23 51 137 23 136 23 137 5 208 -10 39 -16
73 -13 77 3 3 11 -15 18 -41 6 -25 15 -46 19 -46 4 0 11 21 16 48 5 29 9 39
11 25 3 -12 0 -47 -6 -78 -11 -57 -5 -87 45 -257 11 -38 23 -13 54 112 31 125
34 172 14 224 -3 9 -1 16 5 16 6 0 11 -9 11 -20 0 -11 4 -20 9 -20 5 0 13 9
16 20 3 11 10 20 15 20 4 0 2 -23 -6 -52 -11 -45 -11 -60 3 -115 8 -35 19 -63
23 -63 4 0 22 54 40 120 18 66 37 120 43 120 5 0 7 -6 4 -12 -2 -7 -21 -74
-42 -148 l-37 -135 18 -78 c9 -43 22 -76 27 -74 6 2 22 44 37 93 24 82 27 103
24 225 l-3 134 11 -93 c6 -52 14 -90 18 -85 4 4 20 47 34 95 15 49 30 88 35
88 5 0 -10 -62 -34 -138 -38 -125 -41 -144 -37 -220 2 -45 8 -82 13 -82 5 0 9
2 9 4 0 3 22 76 50 163 27 87 53 186 56 220 6 51 10 62 27 67 12 3 22 4 24 2
2 -1 -6 -29 -18 -62 -20 -57 -64 -352 -54 -362 6 -6 6 -8 75 227 33 113 62
207 65 209 16 16 8 -19 -35 -163 -44 -148 -53 -192 -30 -155 5 8 42 88 81 178
40 89 76 162 81 162 10 0 10 1 -117 -280 -54 -118 -108 -244 -122 -280 -24
-63 -73 -345 -73 -421 0 -20 16 -103 35 -185 19 -82 35 -159 35 -170 0 -12
-10 -34 -21 -49 -17 -21 -28 -26 -50 -21 -18 3 -29 1 -33 -9 -6 -17 -52 -20
-61 -5 -3 6 -15 10 -27 10 -17 0 -18 3 -9 14 10 11 9 21 -3 44 -13 25 -21 29
-56 29 -22 0 -40 -4 -40 -9 0 -17 30 -68 40 -68 6 0 10 -5 10 -11 0 -6 -6 -9
-14 -6 -8 3 -17 -1 -20 -9 -6 -17 -55 -19 -90 -3 -19 9 -29 8 -47 -5 -29 -20
-78 -21 -106 -1 -18 13 -26 13 -55 1 -27 -12 -39 -12 -63 -2 -24 10 -33 10
-42 1 -11 -12 10 -17 77 -16 17 1 40 1 53 1 12 0 43 -2 70 -6 35 -4 54 -2 72
10 13 9 26 12 29 7 9 -14 58 -20 85 -9 35 13 120 18 146 8 13 -5 30 -3 45 6
14 7 37 13 52 14 35 0 68 42 68 86 0 19 -16 102 -36 186 l-36 153 22 165 c12
91 29 187 37 215 16 55 109 272 125 292 6 7 27 13 47 13 44 0 1202 329 1265
360 61 29 124 94 155 160 l26 55 3 727 c3 805 3 797 -61 927 -39 80 -230 282
-382 404 -441 355 -1004 572 -1605 617 -151 11 -199 11 -349 -1z m389 -35
c439 -32 925 -194 1303 -435 196 -125 318 -226 479 -393 94 -99 139 -166 172
-254 20 -56 21 -76 24 -776 2 -636 1 -725 -13 -774 -25 -86 -54 -125 -130
-175 -28 -18 -176 -65 -475 -151 -239 -69 -514 -147 -610 -175 -163 -47 -210
-58 -210 -46 0 2 5 15 11 27 8 20 31 30 122 55 417 116 1091 315 1124 331 49
25 91 79 109 140 21 69 20 1400 -1 1490 -21 90 -54 148 -132 232 -207 225
-414 385 -686 530 -338 181 -801 305 -1209 325 -233 12 -536 -30 -839 -115
-444 -126 -827 -349 -1142 -665 -117 -118 -155 -169 -189 -254 l-23 -56 -3
-725 c-2 -659 -1 -729 14 -769 19 -51 74 -115 117 -138 16 -8 296 -91 621
-184 460 -131 595 -174 608 -190 22 -26 23 -39 2 -39 -28 0 -1206 339 -1250
359 -62 29 -107 73 -140 138 l-29 58 -3 707 c-3 781 -2 791 59 918 26 53 61
94 188 221 215 214 383 337 646 471 480 244 981 350 1485 312z m155 -113 c526
-80 985 -279 1357 -588 155 -129 284 -269 326 -352 l37 -75 3 -739 c2 -731 2
-740 -18 -783 -27 -55 -71 -88 -151 -113 -239 -74 -1120 -323 -1126 -318 -2 3
14 47 37 99 37 84 45 95 79 109 48 20 79 63 64 88 -17 27 -85 59 -176 83 l-88
23 -2 670 -2 670 -692 3 -693 2 -2 -672 -3 -671 -85 -19 c-136 -29 -231 -85
-205 -122 6 -8 42 -56 81 -108 81 -107 108 -147 103 -152 -2 -2 -157 41 -344
94 -872 250 -836 239 -882 288 -54 59 -53 39 -53 806 0 767 -1 757 52 861 27
52 229 258 348 354 395 318 898 518 1460 580 128 14 424 5 575 -18z m288
-1261 c16 0 17 -38 17 -646 l0 -647 -52 6 c-222 26 -328 31 -623 31 -294 0
-453 -8 -597 -31 l-38 -6 0 649 0 649 638 -2 c350 -2 645 -3 655 -3z m-205
-1310 c241 -23 452 -69 483 -106 73 -88 -581 -169 -1154 -144 -400 17 -717 75
-717 130 0 9 71 50 85 50 4 0 -1 -7 -9 -16 -57 -57 41 -90 344 -116 185 -16
869 -16 1050 0 176 16 305 40 332 62 108 87 -302 139 -1002 127 -321 -6 -415
-11 -575 -33 -27 -3 -48 -4 -45 -1 12 12 302 48 455 57 182 10 593 4 753 -10z"/>
<path d="M1737 3003 c-4 -3 -7 -264 -7 -580 l0 -573 580 0 580 0 0 580 0 580
-573 0 c-316 0 -577 -3 -580 -7z m1123 -578 l0 -545 -545 0 -545 0 0 545 0
545 545 0 545 0 0 -545z"/>
<path d="M2230 1343 c0 -5 -9 -74 -21 -154 l-21 -146 26 -52 c15 -28 31 -49
35 -47 5 3 16 66 26 140 l18 135 -24 65 c-12 36 -26 66 -31 66 -4 0 -8 -3 -8
-7z"/>
<path d="M2020 1328 c0 -2 -9 -54 -20 -117 l-19 -114 31 -55 c37 -66 39 -63
58 80 13 96 13 99 -10 149 -20 42 -40 70 -40 57z"/>
<path d="M2607 1313 c-3 -5 -20 -67 -37 -138 -30 -126 -30 -130 -14 -184 19
-67 21 -64 64 87 29 105 31 117 20 165 -15 61 -25 83 -33 70z"/>
<path d="M2441 1219 c-6 -30 -18 -95 -27 -145 l-16 -90 27 -77 c15 -42 31 -77
35 -77 4 0 20 50 35 110 l27 110 -28 103 c-15 56 -31 106 -35 111 -4 4 -12
-16 -18 -45z m47 -96 c20 -72 20 -72 1 -150 -29 -115 -29 -114 -54 -48 l-23
60 21 113 c11 62 24 109 28 105 4 -5 16 -40 27 -80z"/>
<path d="M1886 1085 c-7 -97 -6 -108 14 -140 12 -19 25 -35 29 -35 5 0 14 41
21 92 13 91 13 93 -12 137 -13 25 -29 46 -35 48 -6 2 -13 -37 -17 -102z"/>
<path d="M2098 1174 c-3 -5 -13 -55 -22 -112 l-17 -103 33 -60 c18 -32 36 -59
39 -59 9 0 15 27 29 126 l12 81 -35 68 c-18 38 -36 64 -39 59z"/>
<path d="M2300 1153 c0 -5 -9 -64 -19 -133 l-19 -125 35 -69 c25 -49 37 -65
43 -55 4 8 15 58 25 112 l17 98 -33 89 c-19 50 -37 90 -41 90 -5 0 -8 -3 -8
-7z m52 -263 c-9 -50 -19 -90 -23 -90 -3 0 -16 22 -29 49 -21 47 -22 54 -11
133 22 155 20 153 51 70 l28 -72 -16 -90z"/>
<path d="M2640 1098 c-7 -24 -22 -79 -34 -123 -23 -80 -23 -80 -5 -144 18 -63
25 -78 33 -70 2 2 19 52 37 111 l33 107 -19 80 c-10 45 -22 81 -26 81 -5 0
-13 -19 -19 -42z"/>
<path d="M1976 1050 c-3 -8 -11 -51 -19 -96 l-13 -81 29 -52 c16 -29 33 -49
38 -44 4 4 13 47 20 94 l13 86 -32 54 c-20 35 -33 49 -36 39z"/>
<path d="M2176 973 c-29 -155 -29 -169 1 -223 25 -45 43 -62 43 -42 0 4 7 47
14 97 13 89 13 90 -12 142 -15 29 -29 53 -33 53 -4 0 -10 -12 -13 -27z"/>
<path d="M2386 918 c-2 -7 -12 -53 -21 -102 l-17 -90 28 -58 c15 -31 30 -55
34 -53 4 2 15 41 25 86 l19 81 -24 70 c-24 70 -37 90 -44 66z"/>
<path d="M2672 826 c-18 -57 -32 -110 -32 -118 0 -26 21 -88 30 -88 5 0 23 46
40 102 30 95 31 107 20 155 -6 29 -15 53 -19 53 -4 0 -22 -47 -39 -104z"/>
<path d="M2040 828 l-13 -92 30 -56 c17 -30 35 -55 39 -55 5 0 15 38 23 85
l14 85 -34 63 c-18 34 -36 62 -40 62 -3 0 -12 -41 -19 -92z"/>
<path d="M2255 838 c-5 -16 -25 -152 -25 -170 0 -7 14 -37 31 -67 37 -64 42
-60 59 50 12 75 12 75 -19 137 -32 64 -39 71 -46 50z"/>
<path d="M2551 783 c-33 -113 -33 -116 -11 -176 12 -32 25 -55 29 -52 4 2 18
38 30 79 l22 75 -21 70 c-11 39 -23 71 -25 71 -2 0 -13 -30 -24 -67z"/>
<path d="M2130 688 c-6 -40 -13 -78 -15 -84 -4 -12 49 -109 64 -118 5 -3 15
33 21 81 l13 88 -29 52 c-15 29 -31 53 -35 53 -4 0 -12 -33 -19 -72z"/>
<path d="M2210 533 c-13 -86 -12 -88 13 -133 14 -25 29 -45 34 -45 4 0 14 36
22 80 l14 79 -29 53 c-15 29 -31 53 -35 53 -4 0 -13 -39 -19 -87z"/>
</g>
</svg>
